<svg xmlns="http://www.w3.org/2000/svg" viewBox="0 0 128 128"><title>close</title><g id="close.svg"><path d="M64,128a64,64,0,1,1,64-64A64,64,0,0,1,64,128ZM94.17,79.08,79.08,64,94.17,48.92a5.3,5.3,0,0,0,1.58-3.75,5.5,5.5,0,0,0-1.58-3.83l-7.5-7.5a5.49,5.49,0,0,0-3.83-1.58,5.3,5.3,0,0,0-3.75,1.58L64,48.92,48.92,33.83a5.3,5.3,0,0,0-3.75-1.58,5.5,5.5,0,0,0-3.83,1.58l-7.5,7.5a5.5,5.5,0,0,0-1.58,3.83,5.3,5.3,0,0,0,1.58,3.75L48.92,64,33.83,79.08a5.3,5.3,0,0,0-1.58,3.75,5.5,5.5,0,0,0,1.58,3.83l7.5,7.5a5.5,5.5,0,0,0,3.83,1.58,5.3,5.3,0,0,0,3.75-1.58L64,79.08,79.08,94.17a5.3,5.3,0,0,0,3.75,1.58,5.49,5.49,0,0,0,3.83-1.58l7.5-7.5a5.5,5.5,0,0,0,1.58-3.83A5.3,5.3,0,0,0,94.17,79.08Z" fill="#c90709"/></g></svg>